<?xml version="1.0" encoding="utf-8"?>
<!-- Generator: Adobe Illustrator 26.0.0, SVG Export Plug-In . SVG Version: 6.00 Build 0)  -->
<svg version="1.1" id="Layer_1" xmlns="http://www.w3.org/2000/svg" xmlns:xlink="http://www.w3.org/1999/xlink" x="0px" y="0px"
	 viewBox="0 0 2000 2000" style="enable-background:new 0 0 2000 2000;" xml:space="preserve">
<style type="text/css">
	.st0{fill:white;}
</style>
<path class="st0" d="M1798.03,473.37L1050.66,34.47c-31.27-18.37-70.04-18.37-101.31,0L201.97,473.36
	c-30.59,17.96-49.38,50.79-49.38,86.26l0,880.75c0,35.47,18.79,68.3,49.38,86.26l747.37,438.89c31.27,18.37,70.04,18.37,101.31,0
	l747.37-438.89c30.59-17.96,49.38-50.79,49.38-86.26l0-880.75C1847.41,524.15,1828.62,491.33,1798.03,473.37z M1521.64,1308.18
	c0,10.38-5.57,19.96-14.58,25.1l-134.05,76.41c-19.26,10.98-43.2-2.93-43.2-25.11l0.15-484.46c0.01-22.96-25.47-36.75-44.69-24.19
	L1000,1062.32L714.73,875.93c-19.22-12.56-44.7,1.24-44.69,24.19l0.15,484.46c0.01,22.17-23.93,36.09-43.2,25.11l-134.05-76.41
	c-9.02-5.14-14.58-14.72-14.58-25.1V678.14c0-10.33,5.51-19.87,14.46-25.03l108.89-62.77c9.22-5.32,20.61-5.13,29.66,0.48
	L1000,818.99l368.64-228.17c9.04-5.61,20.44-5.79,29.66-0.48l108.89,62.77c8.95,5.16,14.46,14.7,14.46,25.03V1308.18z"/>
</svg>
