<svg id="Layer_1" data-name="Layer 1" xmlns="http://www.w3.org/2000/svg" viewBox="0 0 427.7 492.35"><defs><style>.cls-1{fill:#5f42e0;}.cls-2{fill:#FFFFFF;}</style></defs><path class="cls-1" d="M470.35,128.6l.28,242.3a3.88,3.88,0,0,1-1.93,3.36L259,495.65a3.85,3.85,0,0,1-3.87,0l-210-120.91a3.87,3.87,0,0,1-1.94-3.35l-.28-242.3a3.88,3.88,0,0,1,1.93-3.36L254.56,4.35a3.85,3.85,0,0,1,3.87,0l210,120.91A3.87,3.87,0,0,1,470.35,128.6Z" transform="translate(-42.93 -3.83)"/><path class="cls-2" d="M382.53,169.48l-27-15.56a7.15,7.15,0,0,0-7.35.12l-91.4,56.57L165.38,154a7.15,7.15,0,0,0-7.35-.12l-27,15.56a7.17,7.17,0,0,0-3.59,6.21V331.9a7.15,7.15,0,0,0,3.62,6.22l33.23,18.95A7.16,7.16,0,0,0,175,350.84l0-120.11a7.16,7.16,0,0,1,11.08-6l70.73,46.21,70.73-46.21a7.16,7.16,0,0,1,11.08,6l0,120.11a7.16,7.16,0,0,0,10.71,6.23l33.23-18.95a7.15,7.15,0,0,0,3.62-6.22V175.69A7.17,7.17,0,0,0,382.53,169.48Z" transform="translate(-42.93 -3.83)"/></svg>